<?xml version="1.0" encoding="UTF-8"?>
<svg width="49px" height="49px" viewBox="0 0 49 49" version="1.1" xmlns="http://www.w3.org/2000/svg" xmlns:xlink="http://www.w3.org/1999/xlink">
    <title>arrow-to</title>
    <g id="Page-1" stroke="none" stroke-width="1" fill="none" fill-rule="evenodd">
        <g id="crypto-calculator" transform="translate(-696.000000, -281.000000)">
            <g id="Group" transform="translate(285.000000, 272.000000)">
                <g id="arrow-to" transform="translate(411.000000, 9.000000)">
                    <rect id="Rectangle" x="0" y="0" width="49" height="49"></rect>
                    <path d="M35.0596615,15.2097046 L35.1538688,15.2928932 L43.420349,23.5593734 C43.780833,23.9198574 43.8085625,24.4870884 43.5035376,24.8793796 L43.420349,24.973587 L35.1538688,33.2400671 C34.7633445,33.6305914 34.1301795,33.6305914 33.7396553,33.2400671 C33.3791713,32.8795832 33.3514418,32.3123521 33.6564667,31.9200609 L33.7396553,31.8258536 L40.298,25.266 L6,25.2664802 C5.44771525,25.2664802 5,24.8187649 5,24.2664802 C5,23.7536443 5.38604019,23.330973 5.88337887,23.2732079 L6,23.2664802 L40.298,23.266 L33.7396553,16.7071068 C33.3791713,16.3466228 33.3514418,15.7793918 33.6564667,15.3871006 L33.7396553,15.2928932 C34.1001392,14.9324093 34.6673703,14.9046797 35.0596615,15.2097046 Z" id="Combined-Shape" fill="#353A3E" fill-rule="nonzero"></path>
                </g>
            </g>
        </g>
    </g>
</svg>